Patient4_TMGait_0pt4_01_left_24_GRF.mot
version=1
nRows=72
nColumns=19
inDegrees=no
endheader
time	F1x	F1y	F1z	M1x	M1y	M1z	F2x	F2y	F2z	M2x	M2y	M2z	EC1x	EC1y	EC1z	EC2x	EC2y	EC2z
28.93	-14.0153	-4.2779	2.5283	-0.11695	-3.4587	-5.1314	-12.1604	733.8759	-70.0588	291.5624	79.4319	783.6637	-0.0592	0.0182	-0.0073	-0.0462	0.0165	0.9585
28.943	-9.2265	-1.9139	1.7683	-0.40827	-2.3466	-2.4111	-13.5585	730.6306	-69.2739	289.272	78.4086	776.9653	-0.0592	0.0182	-0.0073	-0.0462	0.0165	0.9585
28.956	-5.2187	0.10465	1.1238	-0.67004	-1.4169	-0.065689	-14.3796	727.7734	-68.3055	287.2252	77.0309	770.6094	-0.0592	0.0182	-0.0073	-0.0462	0.0165	0.9585
28.969	-2.2052	1.6692	0.63227	-0.88653	-0.71597	1.7703	-14.6232	726.21	-67.2219	285.8534	75.4168	765.7092	-0.0592	0.0182	-0.0073	-0.0462	0.0165	0.9585
28.982	-0.15913	2.7865	0.29856	-1.0518	-0.24248	3.086	-14.4061	726.6771	-66.0925	285.4845	73.705	763.0986	-0.0592	0.0182	-0.0073	-0.0462	0.0165	0.9585
28.995	1.0626	3.5167	0.09142	-1.1665	0.040056	3.9463	-13.8611	729.5414	-64.9681	286.2735	72.0036	763.1532	-0.0592	0.0182	-0.0073	-0.0462	0.0165	0.9585
29.008	1.6498	3.9108	-0.017082	-1.227	0.17013	4.4079	-13.1158	734.7099	-63.8903	288.1746	70.3917	765.7334	-0.0592	0.0182	-0.0073	-0.0462	0.0165	0.9585
29.021	1.7875	4.0163	-0.056285	-1.2284	0.19006	4.5369	-12.2392	741.6655	-62.8841	290.9621	68.8995	770.2278	-0.0592	0.0182	-0.0073	-0.0462	0.0165	0.9585
29.034	1.6498	3.8363	-0.048947	-1.1551	0.13896	4.3398	-11.2467	749.5806	-61.9636	294.2777	67.5155	775.7007	-0.0592	0.0182	-0.0073	-0.0462	0.0165	0.9585
29.047	1.3705	3.344	-0.014146	-0.98683	0.045463	3.7839	-10.1141	757.4139	-61.1196	297.6768	66.1905	781.0134	-0.0592	0.0182	-0.0073	-0.0462	0.0165	0.9585
29.06	1.0408	2.4869	0.032302	-0.70133	-0.066102	2.8082	-8.8214	764.0717	-60.3435	300.6942	64.881	785.0153	-0.0592	0.0182	-0.0073	-0.0462	0.0165	0.9585
29.073	0.73731	1.1801	0.081165	-0.26809	-0.17272	1.3122	-7.3741	768.6117	-59.6128	302.9263	63.5467	786.7525	-0.0592	0.0182	-0.0073	-0.0462	0.0165	0.9585
29.086	0.51055	-0.62649	0.10986	0.33255	-0.23949	-0.75875	-5.8078	770.39	-58.8992	304.0872	62.1627	785.602	-0.0592	0.0182	-0.0073	-0.0462	0.0165	0.9585
29.099	0.41896	-2.9063	0.10977	1.0949	-0.23656	-3.3761	-4.1836	769.0539	-58.1842	304.0093	60.7286	781.2529	-0.0592	0.0182	-0.0073	-0.0462	0.0165	0.9585
29.112	0.52143	-5.4722	0.054313	1.9596	-0.11268	-6.3262	-2.5361	764.5641	-57.4837	302.6518	59.2704	773.7067	-0.0592	0.0182	-0.0073	-0.0462	0.0165	0.9585
29.125	0.89903	-7.9207	-0.0704	2.7892	0.17662	-9.1523	-0.84857	757.2564	-56.8457	300.1251	57.8248	763.3208	-0.0592	0.0182	-0.0073	-0.0462	0.0165	0.9585
29.138	1.6336	-9.5166	-0.28939	3.3296	0.68674	-10.9881	0.9272	747.8255	-56.3527	296.6869	56.4449	750.7905	-0.0592	0.0182	-0.0073	-0.0462	0.0165	0.9585
29.151	2.8012	-9.1292	-0.61563	3.1897	1.4613	-10.5004	2.8839	737.189	-56.1056	292.6897	55.1893	737.015	-0.0592	0.0182	-0.0073	-0.0462	0.0165	0.9585
29.164	4.4602	-5.162	-1.0667	1.8193	2.5328	-5.8294	5.1155	726.3137	-56.1875	288.5103	54.1081	722.9483	-0.0592	0.0182	-0.0073	-0.0462	0.0165	0.9585
29.177	6.5722	4.4198	-1.6253	-1.4828	3.8654	5.3935	7.6469	715.9482	-56.6365	284.4492	53.2394	709.356	-0.0592	0.0182	-0.0073	-0.0462	0.0165	0.9585
29.19	8.9811	21.9161	-2.2437	-7.5108	5.3436	25.8273	10.3976	706.3593	-57.4146	280.6186	52.5965	696.5866	-0.0592	0.0182	-0.0073	-0.0462	0.0165	0.9585
29.203	11.3028	49.5288	-2.8103	-17.0242	6.7052	58.0204	13.1838	697.0722	-58.3801	276.8393	52.1363	684.3232	-0.0592	0.0182	-0.0073	-0.0462	0.0165	0.9585
29.216	12.8783	88.6992	-3.1364	-30.5188	7.5031	103.6132	15.7133	686.7591	-59.2748	272.6013	51.7413	671.4644	-0.0592	0.0182	-0.0073	-0.0462	0.0165	0.9585
29.229	12.6507	139.0836	-2.9286	-47.8718	7.0437	162.1634	17.6588	673.4112	-59.7351	267.1299	51.2052	656.2531	-0.0592	0.0182	-0.0073	-0.0462	0.0165	0.9585
29.242	9.3057	197.2677	-1.7673	-67.8941	4.4109	229.6555	18.7657	654.7656	-59.3437	259.5558	50.2452	636.6369	-0.0592	0.0182	-0.0073	-0.0462	0.0165	0.9585
29.255	2.5951	256.5535	1.0041	-88.2321	-1.2116	298.3149	18.9147	629.0006	-57.735	249.1899	48.5693	610.8961	-0.0592	0.0182	-0.0073	-0.0462	0.0165	0.9585
29.268	-5.9746	309.6885	5.8993	-106.3739	-9.7739	359.5705	18.2252	595.4552	-54.7408	235.8007	45.9845	578.2938	-0.0592	0.0182	-0.0073	-0.0462	0.0165	0.9585
29.281	-14.5936	354.6399	12.1215	-121.626	-19.7709	410.7688	16.9921	554.898	-50.5101	219.6935	42.5184	539.3751	-0.0592	0.0182	-0.0073	-0.0462	0.0165	0.9585
29.294	-22.0248	393.069	19.1265	-134.5748	-30.1252	453.6801	15.5681	508.7765	-45.5004	201.431	38.4427	495.2877	-0.0592	0.0182	-0.0073	-0.0462	0.0165	0.9585
29.307	-27.5469	427.7549	26.0085	-146.2187	-39.5936	491.4448	14.2055	458.5887	-40.1756	181.586	34.0641	447.2623	-0.0592	0.0182	-0.0073	-0.0462	0.0165	0.9585
29.32	-30.9895	461.1458	32.4046	-157.415	-47.6772	526.9594	12.97	405.5836	-34.8252	160.6405	29.6015	396.3579	-0.0592	0.0182	-0.0073	-0.0462	0.0165	0.9585
29.333	-32.4923	494.4914	37.8059	-168.6205	-53.8947	561.7175	11.746	350.8925	-29.5657	139.033	25.1831	343.6124	-0.0592	0.0182	-0.0073	-0.0462	0.0165	0.9585
29.346	-32.4334	528.1858	42.2991	-179.9561	-58.4667	596.2753	10.3568	295.713	-24.4568	117.2321	20.9183	290.1832	-0.0592	0.0182	-0.0073	-0.0462	0.0165	0.9585
29.359	-31.2034	562.2305	45.9394	-191.4046	-61.6393	630.7306	8.6075	241.5065	-19.5739	95.8093	16.9434	237.5201	-0.0592	0.0182	-0.0073	-0.0462	0.0165	0.9585
29.372	-29.1846	596.5498	49.1024	-202.9113	-63.969	665.1619	6.4134	189.9991	-15.0574	75.4434	13.4186	187.3379	-0.0592	0.0182	-0.0073	-0.0462	0.0165	0.9585
29.385	-26.6204	631.0374	51.9038	-214.431	-65.7144	699.4993	3.8769	143.0633	-11.0841	56.8668	10.4745	141.4944	-0.0592	0.0182	-0.0073	-0.0462	0.0165	0.9585
29.398	-23.8125	665.1695	54.6077	-225.7802	-67.2723	733.2422	1.2775	102.3357	-7.8037	40.7231	8.1589	101.6137	-0.0592	0.0182	-0.0073	-0.0462	0.0165	0.9585
29.411	-21.0486	697.9441	57.2033	-236.6387	-68.7533	765.3239	-1.0124	68.8134	-5.2495	27.4143	6.3854	68.6829	-0.0592	0.0182	-0.0073	-0.0462	0.0165	0.9585
29.424	-18.5416	728.2572	59.7162	-246.6531	-70.2497	794.5829	-2.6993	42.6945	-3.3604	17.0288	5.0075	42.9214	-0.0592	0.0182	-0.0073	-0.0462	0.0165	0.9585
29.437	-16.3376	755.1097	61.8895	-255.5273	-71.5048	819.9306	-3.6336	23.5173	-1.9881	9.3929	3.8507	23.9055	-0.0592	0.0182	-0.0073	-0.0462	0.0165	0.9585
29.45	-14.3464	777.6776	63.5462	-263.0161	-72.2853	840.4859	-3.8321	10.3771	-1.0242	4.1527	2.832	10.7967	-0.0592	0.0182	-0.0073	-0.0462	0.0165	0.9585
29.463	-12.4444	795.1906	64.4572	-268.8821	-72.2978	855.4073	-3.4457	2.1609	-0.37404	0.87025	1.9274	2.529	-0.0592	0.0182	-0.0073	-0.0462	0.0165	0.9585
29.476	-10.5391	806.8935	64.6347	-272.8717	-71.5116	863.9	-2.7644	-2.2743	0.011812	-0.90953	1.2019	-1.9903	-0.0592	0.0182	-0.0073	-0.0462	0.0165	0.9585
29.489	-8.5756	812.3561	64.1054	-274.8284	-69.9331	865.5399	-2.0132	-4.0596	0.20566	-1.633	0.66785	-3.8617	-0.0592	0.0182	-0.0073	-0.0462	0.0165	0.9585
29.502	-6.4611	811.7659	63.0431	-274.788	-67.7152	860.5948	-1.3307	-4.1777	0.26295	-1.6893	0.31875	-4.048	-0.0592	0.0182	-0.0073	-0.0462	0.0165	0.9585
29.515	-4.1494	805.9049	61.5434	-272.9923	-64.9472	849.9734	-0.78018	-3.3801	0.24165	-1.3779	0.11502	-3.2909	-0.0592	0.0182	-0.0073	-0.0462	0.0165	0.9585
29.528	-1.6381	796.071	59.7758	-269.8511	-61.8077	835.1252	-0.37502	-2.207	0.17293	-0.9128	0.022215	-2.1376	-0.0592	0.0182	-0.0073	-0.0462	0.0165	0.9585
29.541	1.0192	783.8553	57.8318	-265.8769	-58.4178	817.7933	-0.11369	-0.99205	0.091422	-0.42794	-0.0035459	-0.9245	-0.0592	0.0182	-0.0073	-0.0462	0.0165	0.9585
29.554	3.7598	770.8903	55.8641	-261.5994	-54.967	799.7578	0.037671	0.078011	0.0082551	0.001421	0.010829	0.1504	-0.0592	0.0182	-0.0073	-0.0462	0.0165	0.9585
29.567	6.5204	758.6743	53.9602	-257.5161	-51.578	782.6015	0.10483	0.92983	-0.061224	0.34418	0.041647	1.0135	-0.0592	0.0182	-0.0073	-0.0462	0.0165	0.9585
29.58	9.2511	748.4153	52.2521	-254.036	-48.4092	767.5916	0.11824	1.5429	-0.11102	0.59233	0.075741	1.6452	-0.0592	0.0182	-0.0073	-0.0462	0.0165	0.9585
29.593	11.939	740.9067	50.7841	-251.4426	-45.5208	755.5269	0.10193	1.9442	-0.13819	0.7568	0.10226	2.0725	-0.0592	0.0182	-0.0073	-0.0462	0.0165	0.9585
29.606	14.5745	736.5764	49.6257	-249.8965	-42.9905	746.8285	0.077566	2.181	-0.15238	0.85682	0.12271	2.3376	-0.0592	0.0182	-0.0073	-0.0462	0.0165	0.9585
29.619	17.139	735.5067	48.7546	-249.4437	-40.8044	741.5506	0.050233	2.3025	-0.15644	0.91309	0.13767	2.4894	-0.0592	0.0182	-0.0073	-0.0462	0.0165	0.9585
29.632	19.5826	737.4651	48.1786	-250.0162	-38.9828	739.4541	0.017166	2.3533	-0.1616	0.94263	0.15731	2.5729	-0.0592	0.0182	-0.0073	-0.0462	0.0165	0.9585
29.645	21.8757	742.0064	47.8234	-251.4671	-37.4645	740.079	-0.012429	2.3553	-0.17277	0.9529	0.18566	2.5946	-0.0592	0.0182	-0.0073	-0.0462	0.0165	0.9585
29.658	23.9975	748.5045	47.6577	-253.5787	-36.22	742.7999	-0.057647	2.2937	-0.19384	0.93771	0.23062	2.5374	-0.0592	0.0182	-0.0073	-0.0462	0.0165	0.9585
29.671	25.9506	756.1536	47.5938	-256.068	-35.1616	746.8191	-0.1127	2.1364	-0.22335	0.88437	0.28825	2.363	-0.0592	0.0182	-0.0073	-0.0462	0.0165	0.9585
29.684	27.7424	764.0298	47.6149	-258.6016	-34.2645	751.2404	-0.16827	1.8412	-0.26516	0.77408	0.35818	2.0221	-0.0592	0.0182	-0.0073	-0.0462	0.0165	0.9585
29.697	29.3963	771.2044	47.6681	-260.8411	-33.4693	755.1712	-0.22142	1.3391	-0.31356	0.57947	0.43097	1.4301	-0.0592	0.0182	-0.0073	-0.0462	0.0165	0.9585
29.71	30.8936	776.8398	47.7623	-262.4752	-32.7852	757.8426	-0.25238	0.57151	-0.36232	0.27425	0.494	0.52068	-0.0592	0.0182	-0.0073	-0.0462	0.0165	0.9585
29.723	32.2148	780.3312	47.868	-263.2715	-32.1925	758.7211	-0.23374	-0.49521	-0.40159	-0.15892	0.52703	-0.74478	-0.0592	0.0182	-0.0073	-0.0462	0.0165	0.9585
29.736	33.3214	781.3811	47.9925	-263.1002	-31.7107	757.599	-0.13847	-1.8854	-0.42059	-0.7256	0.50292	-2.3962	-0.0592	0.0182	-0.0073	-0.0462	0.0165	0.9585
29.749	34.1928	780.0024	48.1352	-261.9415	-31.3508	754.5646	0.071923	-3.5116	-0.3994	-1.3908	0.38203	-4.3241	-0.0592	0.0182	-0.0073	-0.0462	0.0165	0.9585
29.762	34.7974	776.4684	48.3738	-259.8716	-31.2011	749.945	0.45507	-5.1512	-0.31242	-2.0635	0.11359	-6.254	-0.0592	0.0182	-0.0073	-0.0462	0.0165	0.9585
29.775	35.1717	771.29	48.8083	-257.0589	-31.3527	744.2454	1.0374	-6.3896	-0.12607	-2.5734	-0.35154	-7.6796	-0.0592	0.0182	-0.0073	-0.0462	0.0165	0.9585
29.788	35.3868	765.1167	49.5624	-253.7312	-31.9033	738.0626	1.8462	-6.5429	0.19474	-2.6433	-1.0589	-7.7889	-0.0592	0.0182	-0.0073	-0.0462	0.0165	0.9585
29.801	35.5381	758.5462	50.7265	-250.1141	-32.9074	731.9005	2.8664	-4.6283	0.67727	-1.8761	-2.029	-5.4241	-0.0592	0.0182	-0.0073	-0.0462	0.0165	0.9585
29.814	35.7241	751.9219	52.3264	-246.3583	-34.3567	725.9898	4.0014	0.61505	1.3409	0.24033	-3.2365	0.89298	-0.0592	0.0182	-0.0073	-0.0462	0.0165	0.9585
29.827	35.9914	745.2087	54.2657	-242.4997	-36.1431	720.1917	5.0661	10.6731	2.1626	4.3088	-4.5671	12.8966	-0.0592	0.0182	-0.0073	-0.0462	0.0165	0.9585
29.84	36.3148	737.9645	56.3371	-238.4545	-38.0773	713.995	5.7223	27.0641	3.064	10.9432	-5.7795	32.3482	-0.0592	0.0182	-0.0073	-0.0462	0.0165	0.9585
29.853	36.5739	729.3945	58.2798	-234.023	-39.9469	706.5787	5.4421	50.9257	3.8746	20.6083	-6.4549	60.5379	-0.0592	0.0182	-0.0073	-0.0462	0.0165	0.9585
